<mxfile host="app.diagrams.net" modified="2022-04-25T03:12:03.743Z" agent="5.0 (Macintosh; Intel Mac OS X 10_15_6) AppleWebKit/605.1.15 (KHTML, like Gecko) Version/15.4 Safari/605.1.15" etag="6nlZE5-PfevoMKZuT-Z9" version="17.4.6" type="github">
  <diagram id="XM0_SPJSD3OMz8XxLxOr" name="Page-1">
    <mxGraphModel dx="576" dy="889" grid="1" gridSize="10" guides="1" tooltips="1" connect="1" arrows="1" fold="1" page="1" pageScale="1" pageWidth="850" pageHeight="1100" math="0" shadow="0">
      <root>
        <mxCell id="0" />
        <mxCell id="1" parent="0" />
        <mxCell id="YDDNEgxZCBITFUkxLrux-3" style="edgeStyle=orthogonalEdgeStyle;rounded=0;orthogonalLoop=1;jettySize=auto;html=1;entryX=0.5;entryY=0;entryDx=0;entryDy=0;" parent="1" source="YDDNEgxZCBITFUkxLrux-1" target="YDDNEgxZCBITFUkxLrux-2" edge="1">
          <mxGeometry relative="1" as="geometry" />
        </mxCell>
        <mxCell id="YDDNEgxZCBITFUkxLrux-1" value="Search Movie" style="ellipse;whiteSpace=wrap;html=1;" parent="1" vertex="1">
          <mxGeometry x="20" y="20" width="160" height="90" as="geometry" />
        </mxCell>
        <mxCell id="YDDNEgxZCBITFUkxLrux-12" value="" style="edgeStyle=orthogonalEdgeStyle;rounded=0;orthogonalLoop=1;jettySize=auto;html=1;" parent="1" source="YDDNEgxZCBITFUkxLrux-2" target="YDDNEgxZCBITFUkxLrux-4" edge="1">
          <mxGeometry relative="1" as="geometry" />
        </mxCell>
        <mxCell id="YDDNEgxZCBITFUkxLrux-2" value="Verify Haul" style="rounded=1;whiteSpace=wrap;html=1;" parent="1" vertex="1">
          <mxGeometry x="40" y="140" width="120" height="60" as="geometry" />
        </mxCell>
        <mxCell id="YDDNEgxZCBITFUkxLrux-7" style="edgeStyle=orthogonalEdgeStyle;rounded=0;orthogonalLoop=1;jettySize=auto;html=1;entryX=0.5;entryY=0;entryDx=0;entryDy=0;" parent="1" source="YDDNEgxZCBITFUkxLrux-4" target="YDDNEgxZCBITFUkxLrux-6" edge="1">
          <mxGeometry relative="1" as="geometry" />
        </mxCell>
        <mxCell id="YDDNEgxZCBITFUkxLrux-4" value="NZB" style="ellipse;shape=cloud;whiteSpace=wrap;html=1;" parent="1" vertex="1">
          <mxGeometry x="40" y="220" width="120" height="60" as="geometry" />
        </mxCell>
        <mxCell id="YDDNEgxZCBITFUkxLrux-15" value="" style="edgeStyle=orthogonalEdgeStyle;rounded=0;orthogonalLoop=1;jettySize=auto;html=1;" parent="1" source="YDDNEgxZCBITFUkxLrux-6" target="YDDNEgxZCBITFUkxLrux-14" edge="1">
          <mxGeometry relative="1" as="geometry" />
        </mxCell>
        <mxCell id="YDDNEgxZCBITFUkxLrux-6" value="Unzip / Process" style="rounded=1;whiteSpace=wrap;html=1;" parent="1" vertex="1">
          <mxGeometry x="40" y="300" width="120" height="60" as="geometry" />
        </mxCell>
        <mxCell id="YDDNEgxZCBITFUkxLrux-11" style="edgeStyle=orthogonalEdgeStyle;rounded=0;orthogonalLoop=1;jettySize=auto;html=1;entryX=0.5;entryY=0;entryDx=0;entryDy=0;" parent="1" source="YDDNEgxZCBITFUkxLrux-8" target="YDDNEgxZCBITFUkxLrux-10" edge="1">
          <mxGeometry relative="1" as="geometry" />
        </mxCell>
        <mxCell id="YDDNEgxZCBITFUkxLrux-8" value="iTunes Watchfolder?" style="rounded=1;whiteSpace=wrap;html=1;" parent="1" vertex="1">
          <mxGeometry x="40" y="490" width="120" height="60" as="geometry" />
        </mxCell>
        <mxCell id="YDDNEgxZCBITFUkxLrux-10" value="Cleanup / Refresh Plex" style="rounded=1;whiteSpace=wrap;html=1;" parent="1" vertex="1">
          <mxGeometry x="40" y="580" width="120" height="60" as="geometry" />
        </mxCell>
        <mxCell id="YDDNEgxZCBITFUkxLrux-16" style="edgeStyle=orthogonalEdgeStyle;rounded=0;orthogonalLoop=1;jettySize=auto;html=1;entryX=1;entryY=0.5;entryDx=0;entryDy=0;" parent="1" source="YDDNEgxZCBITFUkxLrux-14" target="YDDNEgxZCBITFUkxLrux-8" edge="1">
          <mxGeometry relative="1" as="geometry">
            <Array as="points">
              <mxPoint x="290" y="330" />
              <mxPoint x="290" y="520" />
            </Array>
          </mxGeometry>
        </mxCell>
        <mxCell id="YDDNEgxZCBITFUkxLrux-18" style="edgeStyle=orthogonalEdgeStyle;rounded=0;orthogonalLoop=1;jettySize=auto;html=1;entryX=0.5;entryY=0;entryDx=0;entryDy=0;" parent="1" source="YDDNEgxZCBITFUkxLrux-14" target="YDDNEgxZCBITFUkxLrux-17" edge="1">
          <mxGeometry relative="1" as="geometry">
            <Array as="points">
              <mxPoint x="240" y="380" />
              <mxPoint x="100" y="380" />
            </Array>
          </mxGeometry>
        </mxCell>
        <mxCell id="YDDNEgxZCBITFUkxLrux-14" value="Needs Handbrake?" style="rhombus;whiteSpace=wrap;html=1;" parent="1" vertex="1">
          <mxGeometry x="200" y="290" width="80" height="80" as="geometry" />
        </mxCell>
        <mxCell id="YDDNEgxZCBITFUkxLrux-19" style="edgeStyle=orthogonalEdgeStyle;rounded=0;orthogonalLoop=1;jettySize=auto;html=1;entryX=0.5;entryY=0;entryDx=0;entryDy=0;" parent="1" source="YDDNEgxZCBITFUkxLrux-17" target="YDDNEgxZCBITFUkxLrux-8" edge="1">
          <mxGeometry relative="1" as="geometry" />
        </mxCell>
        <mxCell id="YDDNEgxZCBITFUkxLrux-17" value="Handbrake Watch / Docker?" style="rounded=1;whiteSpace=wrap;html=1;" parent="1" vertex="1">
          <mxGeometry x="40" y="400" width="120" height="60" as="geometry" />
        </mxCell>
        <mxCell id="YDDNEgxZCBITFUkxLrux-21" value="&lt;span style=&quot;color: rgb(53 , 60 , 65) ; font-family: &amp;#34;helvetica neue&amp;#34; , &amp;#34;helvetica&amp;#34; , &amp;#34;arial&amp;#34; , &amp;#34;roboto&amp;#34; , &amp;#34;liberation sans&amp;#34; , sans-serif , &amp;#34;apple color emoji&amp;#34; , &amp;#34;segoe ui emoji&amp;#34; , &amp;#34;segoe ui symbol&amp;#34; ; font-size: 14px ; background-color: rgb(255 , 255 , 255)&quot;&gt;HBBatchBeast&lt;/span&gt;" style="text;html=1;strokeColor=none;fillColor=none;align=center;verticalAlign=middle;whiteSpace=wrap;rounded=0;" parent="1" vertex="1">
          <mxGeometry x="320" y="415" width="60" height="30" as="geometry" />
        </mxCell>
      </root>
    </mxGraphModel>
  </diagram>
</mxfile>
